<svg width="37" height="36" viewBox="0 0 37 36" fill="none" xmlns="http://www.w3.org/2000/svg">
<g clip-path="url(#clip0_76_235)">
<path d="M28.3281 0H8.67188C3.88253 0 0 3.7776 0 8.4375V27.5625C0 32.2224 3.88253 36 8.67188 36H28.3281C33.1175 36 37 32.2224 37 27.5625V8.4375C37 3.7776 33.1175 0 28.3281 0Z" fill="#242938"/>
<mask id="mask0_76_235" style="mask-type:luminance" maskUnits="userSpaceOnUse" x="8" y="3" width="21" height="30">
<path d="M8.81641 3.9375H28.0911V32.0625H8.81641V3.9375Z" fill="white"/>
</mask>
<g mask="url(#mask0_76_235)">
<path d="M13.6362 32.0625C16.2955 32.0625 18.4538 29.9625 18.4538 27.375V22.6874H13.6362C10.9768 22.6874 8.81836 24.7875 8.81836 27.375C8.81836 29.9625 10.9768 32.0625 13.6362 32.0625Z" fill="#0ACF83"/>
<path d="M8.81836 18C8.81836 15.4125 10.9768 13.3126 13.6362 13.3126H18.4538V22.6875H13.6362C10.9768 22.6875 8.81836 20.5875 8.81836 18Z" fill="#A259FF"/>
<path d="M8.81848 8.62495C8.81848 6.03745 10.9769 3.9375 13.6363 3.9375H18.4539V13.3125H13.6363C10.9769 13.3125 8.81848 11.2125 8.81848 8.62495Z" fill="#F24E1E"/>
<path d="M18.4537 3.9375H23.2714C25.9308 3.9375 28.0892 6.03745 28.0892 8.62495C28.0892 11.2125 25.9308 13.3125 23.2714 13.3125H18.4537V3.9375Z" fill="#FF7262"/>
<path d="M28.0892 18C28.0892 20.5875 25.9308 22.6875 23.2714 22.6875C20.612 22.6875 18.4537 20.5875 18.4537 18C18.4537 15.4125 20.612 13.3126 23.2714 13.3126C25.9308 13.3126 28.0892 15.4125 28.0892 18Z" fill="#1ABCFE"/>
</g>
</g>
<defs>
<clipPath id="clip0_76_235">
<rect width="37" height="36" fill="white"/>
</clipPath>
</defs>
</svg>
