<svg width="36" height="36" viewBox="0 0 36 36" fill="none" xmlns="http://www.w3.org/2000/svg">
<g clip-path="url(#clip0_76_251)">
<path d="M6.38438 0.450012H29.6438C33.1594 0.450012 36.0281 3.29064 36.0281 6.83439V29.1938C36.0281 32.7094 33.1875 35.5781 29.6438 35.5781H6.38438C2.84063 35.55 0 32.7094 0 29.1656V6.83439C0 3.29064 2.84063 0.450012 6.38438 0.450012Z" fill="#330000"/>
<path d="M17.4094 21.4594H11.8125L10.6875 24.975C10.6594 25.1156 10.5469 25.2 10.4063 25.1719H7.59378C7.42503 25.1719 7.3969 25.0875 7.42503 24.8906L12.2625 10.9969C12.3188 10.8562 12.3469 10.6875 12.4032 10.4906C12.4594 10.1812 12.4875 9.84373 12.4875 9.50623C12.4594 9.42185 12.5438 9.3656 12.6 9.33748H16.4813C16.5938 9.33748 16.65 9.39373 16.6782 9.44998L22.1625 24.8906C22.2188 25.0594 22.1625 25.1437 22.0219 25.1437H18.8719C18.7594 25.1719 18.675 25.0875 18.6188 24.975L17.4094 21.4594ZM12.6844 18.3937H16.4813C16.3969 18.0844 16.2844 17.6906 16.1438 17.325C16.0032 16.9312 15.8625 16.4812 15.75 16.0312C15.6094 15.5531 15.4688 15.1031 15.3282 14.6531C15.1875 14.175 15.0469 13.7531 14.9344 13.3312C14.8219 12.9094 14.7094 12.5156 14.5969 12.15H14.5688C14.4282 12.7969 14.2594 13.4437 14.0625 14.0906C13.8375 14.8219 13.6125 15.5531 13.3594 16.3125C13.1344 17.0719 12.9094 17.775 12.6844 18.3937ZM25.5094 12.0094C25.0032 12.0375 24.525 11.8406 24.1875 11.475C23.85 11.1094 23.6532 10.6031 23.6813 10.0969C23.6532 9.5906 23.85 9.11248 24.2157 8.77498C24.5813 8.43748 25.0594 8.2406 25.5375 8.2406C26.1282 8.2406 26.5782 8.40935 26.9157 8.77498C27.2532 9.1406 27.4219 9.61873 27.4219 10.0969C27.45 10.6031 27.2532 11.1094 26.8875 11.475C26.5219 11.8406 26.0157 12.0375 25.5094 12.0094ZM23.8219 25.0312V13.4719C23.8219 13.3312 23.8782 13.275 24.0188 13.275H27C27.1407 13.275 27.1969 13.3594 27.1969 13.4719V25.0312C27.1969 25.2 27.1407 25.2844 27 25.2844H24.0469C23.9063 25.2562 23.8219 25.1719 23.8219 25.0312Z" fill="#FF9A00"/>
</g>
<defs>
<clipPath id="clip0_76_251">
<rect width="36" height="36" fill="white"/>
</clipPath>
</defs>
</svg>
