<svg width="384" height="108" viewBox="0 0 384 108" fill="none" xmlns="http://www.w3.org/2000/svg">
<path d="M7.48811 79.2961C7.61611 81.8561 3.90411 81.7281 3.58411 79.2961C1.28011 61.5681 0.00010547 43.2641 2.36811 25.4721C2.81611 22.2081 3.13611 18.6241 4.99211 15.8081C6.84811 12.9921 10.0481 13.6321 11.4561 16.4481C14.6561 22.7201 15.6161 30.2081 17.5361 36.9281C18.0481 38.6561 18.5601 40.3841 19.2001 42.1121C19.2641 42.3041 19.3921 42.5601 19.5201 42.8161C19.9681 41.6641 20.6081 40.4481 20.9921 39.4241C21.5041 37.8881 21.9521 36.3521 22.4641 34.8801C24.5761 28.6081 26.6881 22.2081 30.2081 16.5761C32.7681 12.3521 38.8481 4.41607 43.9041 10.3681C48.4481 15.6801 48.5121 24.6401 49.0241 31.1681C50.1761 47.1041 49.2801 63.1681 50.8801 79.0401C51.2001 82.1761 46.4001 82.1121 46.0161 79.0401C44.2241 62.5921 45.4401 45.9521 44.1601 29.4401C43.9041 25.9841 43.6481 22.5281 42.8161 19.1361C42.4321 17.4721 41.8561 15.7441 41.0241 14.2721C40.0001 12.5441 38.9121 12.9281 37.6321 14.2081C33.4721 18.4321 30.9761 24.7041 28.9921 30.2081C27.9681 33.0881 27.0721 35.9681 26.0481 38.9121C25.1521 41.7281 24.3841 44.9921 22.9121 47.5521C21.6321 49.8561 18.8161 50.3041 17.0241 48.3201C15.1681 46.2081 14.3361 42.6241 13.5681 40.0641C11.5841 33.6641 10.4321 27.0721 8.19211 20.8001C8.19211 20.7361 8.12811 20.5441 8.00011 20.3521C7.55211 21.7601 7.36011 23.2321 7.16811 24.7041C6.65611 28.3521 6.27211 32.0001 6.08011 35.6481C5.18411 50.2401 6.52811 64.7681 7.48811 79.2961ZM69.7726 43.5841C72.4606 48.8961 72.0126 56.1921 68.3006 60.9281C64.2686 66.0481 57.2286 64.7041 54.8606 58.8161C52.6206 53.2481 54.0926 46.9121 56.2046 41.4721C54.3486 41.4721 53.1326 38.8481 55.1166 37.8241C60.8126 34.8161 67.0206 38.2081 69.7726 43.5841ZM65.2926 57.7281C67.5326 54.4641 67.9806 49.6001 66.3806 46.0161C65.3566 43.8401 63.5006 41.7921 61.2606 41.0241C61.1966 41.0881 61.1966 41.2161 61.1326 41.2801C59.4686 45.3121 57.9966 49.6001 58.3166 54.0161C58.5086 55.9361 58.9566 58.4961 60.8126 59.5201C62.6046 60.4801 64.2686 59.2001 65.2926 57.7281ZM105.779 5.12008C108.787 7.55207 110.387 11.2001 109.491 15.0401C108.467 19.3281 104.947 22.9121 101.747 25.7281C98.3546 28.6081 94.5146 31.0401 90.6746 33.4081C86.6426 35.8401 82.4826 38.0801 78.0026 39.4881C78.0666 42.8801 78.1946 46.2721 78.3226 49.6641C79.0266 48.0001 79.7946 46.3361 80.6266 44.8641C82.4826 41.2801 87.2826 34.2401 92.0186 37.6961C95.3466 40.1281 95.6026 45.8241 96.0506 49.5361C96.6266 53.7601 96.8186 57.9841 97.1386 62.2081C97.3946 65.0241 93.0426 64.9601 92.7866 62.2081C92.0826 55.8721 92.2746 49.2161 90.7386 43.0081C90.6106 42.4321 90.3546 41.1521 89.8426 40.8321C88.6906 40.2561 86.8986 42.3041 86.3226 43.0721C84.8506 44.7361 83.7626 46.8481 82.8026 48.8961C80.8826 52.9921 80.1146 57.3441 78.5786 61.5681C78.5786 61.6321 78.5786 61.6961 78.5786 61.7601C78.5786 64.1281 75.3786 64.0001 75.0586 61.7601C74.2906 55.6161 74.0986 49.4081 73.9066 43.2001C73.7146 37.4401 73.6506 31.6161 74.1626 25.8561C74.9306 17.7921 77.1706 9.28008 84.2746 4.60807C90.6106 0.448074 99.7626 0.320072 105.779 5.12008ZM99.9546 22.3361C102.707 19.9041 106.419 16.3201 106.099 12.3521C105.843 8.83207 102.131 6.72007 99.0586 5.88807C92.3386 4.16007 85.2346 7.36007 81.8426 13.3121C78.1306 19.7761 78.0026 28.0321 77.9386 35.2641C81.8426 33.8561 85.4906 31.9361 89.0746 29.8241C92.8506 27.5841 96.6906 25.2801 99.9546 22.3361ZM119.817 49.2161C120.009 53.3761 120.137 57.4721 120.073 61.5681C120.073 64.4481 115.721 64.4481 115.657 61.5681C115.593 57.9201 115.657 54.2721 115.593 50.5601C115.529 49.7281 115.529 48.8961 115.529 48.0641C114.825 49.4081 114.121 50.8161 113.417 52.1601C112.009 54.7841 110.473 57.4081 108.681 59.8401C107.209 61.8881 105.353 64.1921 102.537 63.8081C99.7206 63.4241 98.7606 60.7361 98.6326 58.2401C98.2486 52.4801 101.641 46.4001 105.289 42.1761C107.017 40.1921 109.065 38.1441 111.625 37.5041C114.121 36.8641 116.617 37.8881 117.705 40.1921C117.961 40.3201 118.153 40.4481 118.345 40.6401C120.137 42.6881 119.689 46.7201 119.817 49.2161ZM113.481 43.3921C113.801 42.8161 114.121 42.1121 114.569 41.5361C111.561 40.2561 107.273 46.9121 106.185 48.7041C105.161 50.3681 104.393 52.1601 103.817 54.0161C103.497 55.0401 103.305 56.0641 103.241 57.0881C103.177 57.9201 102.985 59.1361 103.817 59.0081C104.393 58.8801 105.609 57.0241 105.993 56.5121C106.569 55.6801 107.145 54.8481 107.657 54.0161C108.745 52.2881 109.705 50.5601 110.665 48.7681C111.561 46.9761 112.521 45.1841 113.481 43.3921ZM115.337 43.2001C115.209 43.0721 115.273 43.0081 115.337 43.2001V43.2001ZM157.272 61.2481C157.464 64.2561 152.92 64.1921 152.664 61.2481C152.344 57.9201 152.28 54.5281 152.024 51.2001C151.896 49.8561 151.896 42.7521 150.232 42.6241C149.272 42.5601 147.672 45.9521 147.288 46.7201C146.392 48.3841 145.752 50.1761 145.24 51.9681C144.344 55.4241 144.664 59.3921 143.192 62.6561C142.104 64.9601 138.968 63.5521 138.776 61.4401C138.52 58.1121 138.2 54.7201 137.944 51.3281C137.816 49.9201 137.752 48.4481 137.56 46.9761C137.496 46.0801 137.432 43.3281 136.664 42.6241C137.112 42.0481 136.984 42.1761 136.344 43.0721C136.216 43.2641 136.088 43.5201 135.96 43.7121C135.576 44.4801 135.256 45.2481 134.936 46.0801C134.424 47.5521 133.912 49.0881 133.528 50.6241C132.696 53.4401 132.12 56.3201 131.288 59.1361C130.776 61.1201 129.944 64.5121 127.192 64.1921C124.568 63.9361 123.8 60.6721 123.544 58.4961C122.648 51.9681 122.904 45.0561 123.352 38.4001C123.544 36.0321 126.872 36.0321 127.128 38.4001C127.448 42.2401 127.448 46.0801 127.576 49.9201C127.64 51.7121 127.768 53.5041 127.896 55.2961C128.024 54.6561 128.216 54.0161 128.408 53.3761C128.92 51.1361 129.496 48.9601 130.2 46.7841C131.224 43.7761 132.888 37.8881 136.92 38.0161C141.016 38.2081 141.784 44.3521 142.168 47.3601C142.168 47.6801 142.232 48.0001 142.232 48.3841C142.488 47.6801 142.744 46.9761 143.064 46.3361C144.344 43.3281 147.096 37.5681 151.256 38.4001C155.352 39.2321 155.8 45.1841 156.248 48.5121C156.76 52.7361 157.016 57.0241 157.272 61.2481ZM174.886 52.9281C175.782 51.1361 178.47 52.6721 177.574 54.5281C175.27 59.3281 169.894 67.2641 163.43 63.8081C157.158 60.4801 158.822 49.5361 160.998 44.2881C162.214 41.4081 164.326 38.4641 167.206 37.0561C169.702 35.8401 173.222 36.0961 174.822 38.6561C176.23 40.8961 175.526 43.9041 173.734 45.6961C171.366 48.0641 167.59 48.3841 164.454 48.2561C164.326 48.8321 164.198 49.3441 164.07 49.8561C163.558 52.8641 162.47 61.1201 167.398 60.7361C171.302 60.4801 173.35 55.9361 174.886 52.9281ZM169.574 40.3841C167.91 41.2161 166.694 42.8161 165.798 44.6081C167.462 44.5441 169.19 44.5441 170.598 43.7121C172.838 42.3681 172.39 38.8481 169.574 40.3841ZM201.287 29.3761C201.991 40.0001 201.799 51.0721 200.583 61.5681C200.327 63.8081 197.063 63.9361 197.063 61.5681C196.935 56.0641 197.127 50.4961 197.255 44.9281C197.063 45.3121 196.871 45.6321 196.807 45.7601C196.359 46.5281 195.975 47.2961 195.527 48.0641C194.823 49.4081 194.183 50.8161 193.479 52.0961C192.071 54.7841 190.535 57.4081 188.743 59.8401C187.207 61.8881 185.415 64.1921 182.599 63.8081C179.783 63.4241 178.823 60.7361 178.695 58.2401C178.311 52.4801 181.703 46.4001 185.351 42.1761C187.015 40.1921 189.063 38.1441 191.687 37.5041C191.879 37.4401 192.071 37.4401 192.199 37.3761C188.999 35.9681 185.927 34.1761 182.855 32.3841C178.631 29.8241 174.407 27.0721 170.887 23.5521C167.943 20.6081 164.935 16.6401 165.255 12.2241C165.511 8.51207 168.199 5.50407 171.335 3.77607C178.119 7.24792e-05 187.015 1.21607 192.839 6.20807C199.431 11.8401 200.775 21.2481 201.287 29.3761ZM193.543 43.3921C193.863 42.8161 194.119 42.1761 194.503 41.6641C191.303 40.7681 187.783 46.2081 186.439 48.3841C185.415 50.0481 184.583 51.8401 183.943 53.6961C183.751 54.4001 182.471 59.0081 183.623 59.2001C184.071 59.2641 185.479 57.2161 185.735 56.8961C186.375 56.0641 186.951 55.2321 187.527 54.3361C188.615 52.6081 189.575 50.8801 190.535 49.0881C191.495 47.1681 192.455 45.2481 193.543 43.3921ZM177.735 24.5121C183.623 28.8001 190.407 32.7681 197.319 35.0721C197.319 33.9201 197.255 32.7681 197.191 31.5521C196.871 24.5761 196.231 16.4481 191.495 10.8161C187.207 5.69607 179.271 3.90407 173.255 6.97607C169.735 8.83207 167.815 12.1601 169.671 15.9361C171.335 19.4561 174.663 22.2721 177.735 24.5121ZM197.383 39.4241C197.383 39.3601 197.383 39.3601 197.383 39.3601C197.319 39.2961 197.319 39.2961 197.319 39.2961C197.319 39.3601 197.319 39.3601 197.383 39.4241ZM222.664 60.9281C220.296 61.9521 218.248 58.5601 220.616 57.4081C224.776 55.3601 229.32 54.1441 233.672 52.8001C234.696 52.4801 235.72 52.1601 236.68 51.8401C236.616 49.7281 236.552 47.6801 236.424 45.5681C235.976 34.1121 236.04 22.5921 236.808 11.1361C237 8.19207 241.544 8.19207 241.416 11.1361C240.84 22.3361 240.648 33.5361 241.032 44.7361C241.096 46.6561 241.16 48.5761 241.224 50.4961C243.208 49.9201 245.192 49.4081 247.176 48.8961C253.768 47.2321 260.616 45.8241 267.464 45.6321C266.952 32.7041 267.72 19.6481 269.896 6.84807C270.408 3.90407 274.696 5.24807 274.312 8.12807C272.648 20.5441 271.816 33.1521 272.264 45.6961C273.288 45.7601 274.312 45.8881 275.336 46.0161C277.576 46.3361 277 50.2401 274.76 50.0481C273.992 49.9841 273.224 49.9201 272.456 49.9201C272.712 55.0401 273.16 60.2241 273.864 65.3441C274.632 71.4881 276.104 77.6321 276.616 83.7761C276.808 85.9521 273.8 86.0161 273.16 84.2881C270.856 78.2721 270.024 71.4881 269.192 65.0881C268.488 60.0321 267.976 54.9761 267.656 49.8561C261 50.1121 254.408 51.3921 247.88 52.9921C245.704 53.5681 243.528 54.1441 241.416 54.7841C241.8 62.5921 242.504 70.4641 244.36 78.0161C245 80.5761 241.16 81.6001 240.392 79.1041C238.28 71.6801 237.384 63.8721 236.936 56.1281C236.36 56.3201 235.784 56.4481 235.208 56.6401C230.984 57.9841 226.632 59.0721 222.664 60.9281ZM295.011 52.9281C295.907 51.1361 298.595 52.6721 297.699 54.5281C295.395 59.3281 290.019 67.2641 283.555 63.8081C277.283 60.4801 278.947 49.5361 281.123 44.2881C282.339 41.4081 284.451 38.4641 287.331 37.0561C289.827 35.8401 293.347 36.0961 294.947 38.6561C296.355 40.8961 295.651 43.9041 293.859 45.6961C291.491 48.0641 287.715 48.3841 284.579 48.2561C284.451 48.8321 284.323 49.3441 284.195 49.8561C283.683 52.8641 282.595 61.1201 287.523 60.7361C291.427 60.4801 293.475 55.9361 295.011 52.9281ZM289.699 40.3841C288.035 41.2161 286.819 42.8161 285.923 44.6081C287.587 44.5441 289.315 44.5441 290.723 43.7121C292.963 42.3681 292.515 38.8481 289.699 40.3841ZM343.94 86.5281C344.516 88.6401 341.316 89.4721 340.74 87.4241C339.204 81.7921 334.596 77.9521 329.348 75.7121C328.964 80.1281 328.004 84.5441 326.276 88.6401C323.524 95.2321 318.916 101.504 312.196 104.384C305.412 107.264 295.94 106.624 289.86 102.272C283.46 97.6001 283.076 89.4081 287.684 83.2641C292.228 77.3121 299.844 73.2161 306.948 71.2321C312.324 69.6961 318.788 69.4401 324.804 70.7201C324.804 66.3041 324.164 61.8241 323.204 57.5361C322.308 53.7601 321.412 49.7281 319.62 46.3361C319.3 45.6961 318.596 44.1601 317.892 43.8401C316.996 43.3921 316.676 44.2241 316.228 44.9281C315.332 46.3361 314.564 47.8081 313.796 49.2801C312.196 52.2881 310.66 55.2961 308.484 57.9841C306.82 60.1601 304.068 63.3601 300.996 61.7601C298.244 60.2881 298.756 56.4481 299.204 53.8881C299.78 50.6881 301.124 47.4881 303.044 44.8641C304.836 42.3681 307.396 39.4881 310.404 38.4641C312.324 37.8241 314.628 38.3361 315.78 39.9361C315.908 39.8721 315.972 39.8081 316.1 39.8081C317.764 39.1681 319.428 39.8721 320.708 41.0241C323.46 43.4561 324.804 47.1681 325.892 50.6241C327.3 54.8481 328.388 59.1361 328.964 63.5521C329.348 66.3681 329.54 69.2481 329.476 72.0641C336.26 74.5601 341.956 79.2321 343.94 86.5281ZM312.644 43.6481C312.9 43.2641 313.092 42.8801 313.412 42.4321C313.348 42.4321 313.348 42.3681 313.348 42.3681C312.836 40.8961 308.292 45.6321 307.908 46.0161C306.628 47.5521 305.54 49.2801 304.836 51.2001C304.068 53.0561 303.492 55.2321 303.492 57.2801C303.492 57.4081 303.492 57.6001 303.492 57.7281C303.684 57.4721 304.004 57.1521 304.132 57.0241C304.9 56.2561 305.668 55.4241 306.308 54.5281C308.804 51.2001 310.468 47.2961 312.644 43.6481ZM323.652 81.4721C324.228 79.0401 324.548 76.6081 324.74 74.1761C323.972 73.9841 323.204 73.8561 322.5 73.7281C313.86 72.2561 304.9 74.6881 297.668 79.4241C291.908 83.1361 284.036 91.2641 290.756 97.8561C296.004 103.104 306.244 103.04 312.26 99.3281C318.468 95.4241 321.988 88.3201 323.652 81.4721ZM350.817 49.2161C351.009 53.3761 351.137 57.4721 351.073 61.5681C351.073 64.4481 346.721 64.4481 346.657 61.5681C346.593 57.9201 346.657 54.2721 346.593 50.5601C346.529 49.7281 346.529 48.8961 346.529 48.0641C345.825 49.4081 345.121 50.8161 344.417 52.1601C343.009 54.7841 341.473 57.4081 339.681 59.8401C338.209 61.8881 336.353 64.1921 333.537 63.8081C330.721 63.4241 329.761 60.7361 329.633 58.2401C329.249 52.4801 332.641 46.4001 336.289 42.1761C338.017 40.1921 340.065 38.1441 342.625 37.5041C345.121 36.8641 347.617 37.8881 348.705 40.1921C348.961 40.3201 349.153 40.4481 349.345 40.6401C351.137 42.6881 350.689 46.7201 350.817 49.2161ZM344.481 43.3921C344.801 42.8161 345.121 42.1121 345.569 41.5361C342.561 40.2561 338.273 46.9121 337.185 48.7041C336.161 50.3681 335.393 52.1601 334.817 54.0161C334.497 55.0401 334.305 56.0641 334.241 57.0881C334.177 57.9201 333.985 59.1361 334.817 59.0081C335.393 58.8801 336.609 57.0241 336.993 56.5121C337.569 55.6801 338.145 54.8481 338.657 54.0161C339.745 52.2881 340.705 50.5601 341.665 48.7681C342.561 46.9761 343.521 45.1841 344.481 43.3921ZM346.337 43.2001C346.209 43.0721 346.273 43.0081 346.337 43.2001V43.2001ZM373.616 60.2241C376.496 60.0321 376.496 64.5121 373.616 64.6401C370.416 64.8321 367.152 64.4481 363.952 64.6401C363.056 64.7041 362.224 64.7681 361.392 64.8961C358.768 66.4961 355.824 67.4561 352.88 66.8161C351.28 66.4321 350.64 64.1281 351.92 63.0401C353.712 61.4401 356.976 60.9281 359.792 60.6081C360.752 59.9041 361.648 59.1361 362.352 58.4321C364.4 56.4481 366.064 53.8881 366.896 51.1361C367.792 48.0641 367.856 44.2881 365.04 42.1761C362.16 39.9361 358.448 40.7681 355.504 42.4321C353.52 43.5201 352.048 40.7041 353.776 39.4241C357.616 36.6081 362.992 36.0321 367.024 38.7841C370.864 41.3441 372.016 45.8881 371.376 50.2401C370.864 53.9521 369.136 57.4081 366.768 60.2241C369.008 60.2881 371.312 60.3521 373.616 60.2241ZM383.491 63.1681C384.003 64.8321 381.827 65.9841 380.675 64.8321C379.395 63.5521 379.331 61.8881 379.075 60.2241C378.755 58.3041 378.563 56.3841 378.435 54.4001C378.115 50.3041 378.115 46.2081 378.307 42.1121C378.435 39.2961 382.723 39.2961 382.659 42.1121C382.531 45.6321 382.531 49.2161 382.659 52.7361C382.723 54.5921 382.851 56.3841 382.979 58.2401C383.107 59.7761 383.043 61.6961 383.491 63.1681ZM381.379 37.6961C380.675 39.1041 378.947 38.7841 378.179 37.7601C376.259 36.4801 374.403 34.8801 374.595 32.3841C374.723 30.1441 376.579 28.1601 378.563 27.3921C380.867 26.5601 383.107 27.8401 383.363 30.2721C383.619 32.7681 382.467 35.5201 381.379 37.6961ZM379.587 30.9761C378.819 31.4241 377.987 32.2561 378.307 33.1521C378.435 33.4721 378.627 33.7921 378.883 34.0481C379.075 33.5361 379.267 33.0241 379.459 32.5121C379.587 32.0001 379.715 31.4881 379.779 30.9761C379.779 30.9121 379.779 30.9121 379.779 30.8481C379.715 30.9121 379.651 30.9121 379.587 30.9761Z" fill="white"/>
</svg>
