<svg width="37" height="36" viewBox="0 0 37 36" fill="none" xmlns="http://www.w3.org/2000/svg">
<g clip-path="url(#clip0_76_254)">
<path d="M0 9C0 4.02947 4.1414 0 9.25 0H27.75C32.8586 0 37 4.02947 37 9V27C37 31.9705 32.8586 36 27.75 36H9.25C4.1414 36 0 31.9705 0 27V9Z" fill="#FFDD33"/>
<path d="M24.5985 6.86249H21.2397L24.0387 11.6474L17.881 6.86249H14.5222L17.6012 12.7108L11.1634 6.86249H7.80469L11.1634 14.3068L7.80469 29.1937H11.1634L17.6012 13.2432L14.5222 29.1937H17.881L24.0387 12.1798L21.2397 29.1937H24.5985L30.7563 10.5838L24.5985 6.86249Z" fill="black"/>
</g>
<defs>
<clipPath id="clip0_76_254">
<rect width="37" height="36" fill="white"/>
</clipPath>
</defs>
</svg>
