<svg width="37" height="36" viewBox="0 0 37 36" fill="none" xmlns="http://www.w3.org/2000/svg">
<g clip-path="url(#clip0_76_257)">
<mask id="mask0_76_257" style="mask-type:luminance" maskUnits="userSpaceOnUse" x="0" y="0" width="37" height="36">
<path d="M0 0H37V36H0V0Z" fill="white"/>
</mask>
<g mask="url(#mask0_76_257)">
<path d="M28.3281 0H8.67188C3.88254 0 0 3.77761 0 8.4375V27.5625C0 32.2224 3.88254 36 8.67188 36H28.3281C33.1175 36 37 32.2224 37 27.5625V8.4375C37 3.77761 33.1175 0 28.3281 0Z" fill="#242938"/>
<mask id="mask1_76_257" style="mask-type:luminance" maskUnits="userSpaceOnUse" x="5" y="5" width="27" height="26">
<path d="M5.78125 5.625H31.0742V30.2344H5.78125V5.625Z" fill="white"/>
</mask>
<g mask="url(#mask1_76_257)">
<path d="M7.30316 6.68629L21.2984 5.68054C23.0176 5.5371 23.4593 5.63371 24.5403 6.39843L29.0077 9.46054C29.7445 9.98718 29.9899 10.1306 29.9899 10.7041V27.4982C29.9899 28.5508 29.5971 29.1734 28.2219 29.2684L11.9696 30.2262C10.9377 30.2736 10.4463 30.1302 9.90574 29.4601L6.61592 25.2976C6.0258 24.5316 5.78125 23.9581 5.78125 23.2878V8.35973C5.78125 7.4991 6.17409 6.78149 7.30316 6.68629Z" fill="white"/>
<path fill-rule="evenodd" clip-rule="evenodd" d="M21.2984 5.6809L7.30316 6.68665C6.17409 6.78157 5.78125 7.49946 5.78125 8.35981V23.2879C5.78125 23.9579 6.0258 24.5314 6.61592 25.2977L9.90574 29.4599C10.4463 30.13 10.9377 30.2737 11.9696 30.226L28.2222 29.2686C29.5964 29.1734 29.9901 28.5509 29.9901 27.4986V10.7043C29.9901 10.1605 29.7694 10.0037 29.1193 9.53965L24.5403 6.39837C23.4594 5.63365 23.0176 5.53704 21.2984 5.68048V5.6809ZM12.3372 10.4294C11.0101 10.5163 10.709 10.536 9.95531 9.93973L8.03912 8.4567C7.84443 8.26488 7.94228 8.0254 8.43296 7.97759L21.8871 7.02106C23.0169 6.92515 23.6053 7.30821 24.0471 7.6429L26.3546 9.26965C26.4531 9.31802 26.6985 9.60434 26.4034 9.60434L12.5092 10.4181L12.3372 10.4294ZM10.79 27.355V13.098C10.79 12.4755 10.9865 12.1882 11.5748 12.1401L27.5332 11.2309C28.0745 11.1836 28.319 11.5182 28.319 12.1398V26.3017C28.319 26.9244 28.2204 27.4511 27.3369 27.4986L12.0658 28.3599C11.1824 28.4073 10.7903 28.1211 10.7903 27.355H10.79ZM25.8646 13.8625C25.9626 14.2932 25.8646 14.7238 25.422 14.773L24.6859 14.915V25.4412C24.0468 25.7759 23.4584 25.967 22.9669 25.967C22.1809 25.967 21.9846 25.7276 21.3961 25.0105L16.5829 17.6425V24.771L18.1056 25.1066C18.1056 25.1066 18.1056 25.9679 16.8771 25.9679L13.4903 26.159C13.3917 25.967 13.4903 25.4889 13.8335 25.3937L14.7181 25.1549V15.7295L13.4905 15.6329C13.3918 15.2022 13.6372 14.5804 14.3252 14.5321L17.959 14.2942L22.967 21.7574V15.1547L21.6905 15.0119C21.592 14.4846 21.9846 14.1014 22.4753 14.0547L25.8646 13.8625Z" fill="black"/>
</g>
</g>
</g>
<defs>
<clipPath id="clip0_76_257">
<rect width="37" height="36" fill="white"/>
</clipPath>
</defs>
</svg>
