<svg width="37" height="36" viewBox="0 0 37 36" fill="none" xmlns="http://www.w3.org/2000/svg">
<g clip-path="url(#clip0_76_247)">
<path d="M28.3281 0H8.67188C3.88253 0 0 3.7776 0 8.4375V27.5625C0 32.2224 3.88253 36 8.67188 36H28.3281C33.1175 36 37 32.2224 37 27.5625V8.4375C37 3.7776 33.1175 0 28.3281 0Z" fill="#001E36"/>
<path d="M8.32495 25.0369V9.60188C8.32495 9.49683 8.3712 9.43692 8.47917 9.43692C8.7412 9.43692 8.98792 9.43692 9.34245 9.42188C9.71245 9.40683 10.0979 9.40683 10.5142 9.39192C10.9304 9.37688 11.3775 9.37688 11.8554 9.36183C12.3332 9.34692 12.7957 9.34692 13.2582 9.34692C14.5225 9.34692 15.5707 9.49683 16.4342 9.81183C17.208 10.0676 17.9137 10.4878 18.5 11.0419C18.9966 11.5269 19.3804 12.11 19.6254 12.7519C19.8567 13.3819 19.98 14.0269 19.98 14.7019C19.98 15.9919 19.6716 17.0569 19.055 17.8969C18.4382 18.7369 17.575 19.3669 16.5729 19.7269C15.5245 20.1019 14.3682 20.2369 13.1042 20.2369C12.7342 20.2369 12.4875 20.2369 12.3332 20.2219C12.179 20.2068 11.9632 20.2068 11.6704 20.2068V25.0218C11.6857 25.1269 11.6087 25.2169 11.5007 25.2319H8.50995C8.38667 25.2319 8.32495 25.1719 8.32495 25.0369ZM11.6857 12.3318V17.3718C11.9017 17.3869 12.102 17.4019 12.287 17.4019H13.1042C13.7054 17.4019 14.3067 17.3119 14.877 17.1319C15.3704 16.9969 15.802 16.7119 16.1412 16.3368C16.465 15.9619 16.6192 15.4519 16.6192 14.7919C16.6336 14.3232 16.5106 13.8601 16.2645 13.4568C16.0025 13.0669 15.6325 12.7669 15.1854 12.6018C14.615 12.3768 13.9982 12.2868 13.3662 12.3019C12.9654 12.3019 12.6107 12.3019 12.3179 12.3169C12.0095 12.3019 11.7937 12.3169 11.6857 12.3318ZM29.6 16.4569C29.1375 16.2169 28.6442 16.0519 28.1199 15.9469C27.5495 15.8269 26.9792 15.7518 26.3932 15.7518C26.085 15.7369 25.7612 15.7819 25.4682 15.8569C25.2679 15.9019 25.0982 16.0069 24.9904 16.1568C24.9132 16.2769 24.867 16.4268 24.867 16.5618C24.867 16.6968 24.9287 16.8318 25.0212 16.9519C25.16 17.1169 25.345 17.2519 25.5454 17.3569C25.9029 17.537 26.268 17.7021 26.64 17.8519C27.4725 18.1219 28.2742 18.4968 29.0142 18.9468C29.5229 19.2618 29.9392 19.6819 30.232 20.1919C30.4787 20.6719 30.602 21.1968 30.5867 21.7368C30.602 22.4419 30.3862 23.1469 29.9854 23.7319C29.5554 24.3307 28.9554 24.7945 28.2587 25.0668C27.5032 25.3818 26.5782 25.5469 25.4682 25.5469C24.7592 25.5469 24.0654 25.4869 23.3717 25.3519C22.8279 25.2605 22.2991 25.0991 21.7992 24.8719C21.6912 24.8119 21.6142 24.7068 21.6295 24.5869V21.9769C21.6295 21.9319 21.645 21.8718 21.6912 21.8419C21.7375 21.8119 21.7837 21.8268 21.83 21.8569C22.4312 22.2019 23.0632 22.4419 23.7417 22.5918C24.3275 22.7419 24.9442 22.8168 25.5607 22.8168C26.1467 22.8168 26.5629 22.7419 26.8404 22.6069C27.087 22.5018 27.2567 22.2469 27.2567 21.9769C27.2567 21.7669 27.1332 21.5719 26.8867 21.3768C26.64 21.1819 26.1312 20.9569 25.3757 20.6719C24.6008 20.4061 23.8649 20.0431 23.1867 19.5919C22.7035 19.2569 22.3032 18.8213 22.015 18.3168C21.7682 17.8369 21.645 17.3119 21.6604 16.7868C21.6604 16.1419 21.8454 15.5268 22.1845 14.9719C22.57 14.3719 23.1404 13.8919 23.8032 13.5918C24.5279 13.2318 25.4375 13.0669 26.532 13.0669C27.1642 13.0669 27.8117 13.1119 28.4437 13.2019C28.9062 13.2619 29.3532 13.3819 29.7695 13.5468C29.8312 13.5619 29.8929 13.6219 29.9237 13.6818C29.9392 13.7419 29.9545 13.8019 29.9545 13.8618V16.3069C29.9545 16.3669 29.9237 16.4268 29.8775 16.4569C29.7387 16.4869 29.6617 16.4869 29.6 16.4569Z" fill="#31A8FF"/>
</g>
<defs>
<clipPath id="clip0_76_247">
<rect width="37" height="36" fill="white"/>
</clipPath>
</defs>
</svg>
